<?xml version="1.0" encoding="utf-8" ?>
<svg xmlns="http://www.w3.org/2000/svg" xmlns:xlink="http://www.w3.org/1999/xlink" width="16" height="16" viewBox="0 0 16 16">
	<defs>
		<clipPath id="clipPath1210113961">
			<path d="M0 0L16 0L16 16L0 16L0 0Z" fill-rule="nonzero" transform="matrix(1 0 0 1 0 0)"/>
		</clipPath>
	</defs>
	<g clip-path="url(#clipPath1210113961)">
		<path d="M4.3698 0.5547L0.3698 3.22137L0 2.66667L0.3698 2.11197L4.3698 4.77863L4 5.33333L3.33333 5.33333L3.33333 0L4 0L4.3698 0.5547ZM3.6302 -0.5547Q3.79815 -0.666667 4 -0.666667Q4.06566 -0.666667 4.13006 -0.653857Q4.19446 -0.641047 4.25512 -0.61592Q4.31578 -0.590792 4.37038 -0.554313Q4.42497 -0.517834 4.4714 -0.471404Q4.51783 -0.424975 4.55431 -0.37038Q4.59079 -0.315785 4.61592 -0.255122Q4.64105 -0.194459 4.65386 -0.13006Q4.66667 -0.0656609 4.66667 0L4.66667 5.33333Q4.66667 5.53518 4.5547 5.70313Q4.51828 5.75777 4.4719 5.80424Q4.42552 5.85072 4.37096 5.88726Q4.3164 5.92379 4.25577 5.94899Q4.19513 5.97418 4.13074 5.98705Q4.06636 5.99993 4.0007 6Q3.93504 6.00007 3.87062 5.98733Q3.80621 5.97458 3.74552 5.94952Q3.68483 5.92446 3.6302 5.88803L-0.3698 3.22137Q-0.48074 3.14741 -0.5547 3.03647Q-0.591122 2.98183 -0.616186 2.92114Q-0.64125 2.86046 -0.653993 2.79604Q-0.666735 2.73163 -0.666666 2.66597Q-0.666598 2.60031 -0.65372 2.53592Q-0.640843 2.47154 -0.615652 2.4109Q-0.590462 2.35026 -0.553925 2.29571Q-0.517389 2.24115 -0.470911 2.19477Q-0.424433 2.14839 -0.3698 2.11197L3.6302 -0.5547Z" fill-rule="nonzero" transform="matrix(1 0 0 1 10.6667 5.33333)" fill="rgb(250, 250, 250)"/>
		<rect width="9.333334" height="8" rx="1.3333334" ry="1.3333334" stroke-width="1.3333334" stroke-linejoin="round" transform="matrix(1 0 0 1 1.33333 4)" stroke="rgb(250, 250, 250)" fill="transparent"/>
	</g>
</svg>
