<svg xmlns="http://www.w3.org/2000/svg" xmlns:xlink="http://www.w3.org/1999/xlink" width="500" zoomAndPan="magnify" viewBox="0 0 375 374.999991" height="500" preserveAspectRatio="xMidYMid meet" version="1.0"><defs><filter x="0%" y="0%" width="100%" height="100%" id="0eb6fff0d6"><feColorMatrix values="0 0 0 0 1 0 0 0 0 1 0 0 0 0 1 0 0 0 1 0" color-interpolation-filters="sRGB"/></filter><g/><clipPath id="634f8971c9"><path d="M 140.585938 151 L 171 151 L 171 193 L 140.585938 193 Z M 140.585938 151 " clip-rule="nonzero"/></clipPath><clipPath id="1a90c3b9ce"><path d="M 157 106.015625 L 228 106.015625 L 228 193 L 157 193 Z M 157 106.015625 " clip-rule="nonzero"/></clipPath><mask id="3836e78766"><g filter="url(#0eb6fff0d6)"><rect x="-37.5" width="450" fill="#000000" y="-37.499999" height="449.999989" fill-opacity="0.21"/></g></mask><clipPath id="d58e9da841"><path d="M 0.734375 0.503906 L 158.234375 0.503906 L 158.234375 120.503906 L 0.734375 120.503906 Z M 0.734375 0.503906 " clip-rule="nonzero"/></clipPath><clipPath id="c30b4f7b83"><rect x="0" width="159" y="0" height="121"/></clipPath></defs><g fill="#0f0147" fill-opacity="1"><g transform="translate(75.128906, 250.36387)"><g><path d="M 11.171875 -5.453125 L 11.171875 -10.296875 C 11.171875 -10.660156 11.085938 -10.914062 10.921875 -11.0625 C 10.753906 -11.21875 10.457031 -11.296875 10.03125 -11.296875 L 6.34375 -11.296875 C 3.039062 -11.296875 1.390625 -12.863281 1.390625 -16 L 1.390625 -22.09375 C 1.390625 -25.175781 3.148438 -26.71875 6.671875 -26.71875 L 11.796875 -26.71875 C 15.328125 -26.71875 17.09375 -25.175781 17.09375 -22.09375 L 17.09375 -18.609375 L 11.09375 -18.609375 L 11.09375 -21.25 C 11.09375 -21.945312 10.710938 -22.296875 9.953125 -22.296875 L 8.53125 -22.296875 C 7.769531 -22.296875 7.390625 -21.945312 7.390625 -21.25 L 7.390625 -16.546875 C 7.390625 -16.179688 7.472656 -15.921875 7.640625 -15.765625 C 7.804688 -15.617188 8.101562 -15.546875 8.53125 -15.546875 L 12.140625 -15.546875 C 13.929688 -15.546875 15.21875 -15.160156 16 -14.390625 C 16.78125 -13.617188 17.171875 -12.476562 17.171875 -10.96875 L 17.171875 -4.65625 C 17.171875 -1.550781 15.410156 0 11.890625 0 L 6.796875 0 C 3.242188 0 1.46875 -1.550781 1.46875 -4.65625 L 1.46875 -8.109375 L 7.46875 -8.109375 L 7.46875 -5.453125 C 7.46875 -4.753906 7.847656 -4.40625 8.609375 -4.40625 L 10.03125 -4.40625 C 10.789062 -4.40625 11.171875 -4.753906 11.171875 -5.453125 Z M 11.171875 -5.453125 "/></g></g></g><g fill="#0f0147" fill-opacity="1"><g transform="translate(93.692904, 250.36387)"><g><path d="M 12.8125 0 L 6.796875 0 L 6.796875 -8.65625 L 0.078125 -26.71875 L 6.21875 -26.71875 L 9.78125 -14.15625 L 13.109375 -26.71875 L 19.234375 -26.71875 L 12.8125 -8.609375 Z M 12.8125 0 "/></g></g></g><g fill="#0f0147" fill-opacity="1"><g transform="translate(112.970899, 250.36387)"><g><path d="M 13.0625 -26.71875 L 18.5625 -26.71875 L 18.5625 0 L 13.1875 0 L 7.34375 -16 L 7.34375 0 L 1.890625 0 L 1.890625 -26.71875 L 7.3125 -26.71875 L 13.0625 -10.75 Z M 13.0625 -26.71875 "/></g></g></g><g fill="#0f0147" fill-opacity="1"><g transform="translate(133.3829, 250.36387)"><g><path d="M 7.890625 -4.40625 L 16.46875 -4.40625 L 16.46875 0 L 1.890625 0 L 1.890625 -26.71875 L 16.125 -26.71875 L 16.125 -22.296875 L 7.890625 -22.296875 L 7.890625 -15.796875 L 14.90625 -15.796875 L 14.90625 -11.375 L 7.890625 -11.375 Z M 7.890625 -4.40625 "/></g></g></g><g fill="#0f0147" fill-opacity="1"><g transform="translate(150.560893, 250.36387)"><g><path d="M 7.859375 -10 L 7.859375 0 L 1.890625 0 L 1.890625 -26.71875 L 12.890625 -26.71875 C 16.421875 -26.71875 18.1875 -25.175781 18.1875 -22.09375 L 18.1875 -14.609375 C 18.1875 -12.148438 17.066406 -10.664062 14.828125 -10.15625 L 19.53125 0 L 13.109375 0 L 8.90625 -10 Z M 7.859375 -22.296875 L 7.859375 -14.234375 L 11.09375 -14.234375 C 11.476562 -14.234375 11.753906 -14.3125 11.921875 -14.46875 C 12.097656 -14.625 12.1875 -14.882812 12.1875 -15.25 L 12.1875 -21.25 C 12.1875 -21.945312 11.820312 -22.296875 11.09375 -22.296875 Z M 7.859375 -22.296875 "/></g></g></g><g fill="#0f0147" fill-opacity="1"><g transform="translate(170.258885, 250.36387)"><g><path d="M 17.6875 -18.0625 L 11.671875 -18.0625 L 11.671875 -21.546875 C 11.671875 -22.242188 11.296875 -22.59375 10.546875 -22.59375 L 8.8125 -22.59375 C 8.0625 -22.59375 7.6875 -22.242188 7.6875 -21.546875 L 7.6875 -5.171875 C 7.6875 -4.773438 7.769531 -4.5 7.9375 -4.34375 C 8.101562 -4.1875 8.394531 -4.109375 8.8125 -4.109375 L 10.546875 -4.109375 C 10.960938 -4.109375 11.253906 -4.1875 11.421875 -4.34375 C 11.585938 -4.5 11.671875 -4.773438 11.671875 -5.171875 L 11.671875 -10.375 L 9.578125 -10.375 L 9.578125 -14.359375 L 17.6875 -14.359375 L 17.6875 -4.625 C 17.6875 -1.539062 15.921875 0 12.390625 0 L 6.96875 0 C 3.445312 0 1.6875 -1.539062 1.6875 -4.625 L 1.6875 -22.09375 C 1.6875 -25.175781 3.445312 -26.71875 6.96875 -26.71875 L 12.390625 -26.71875 C 15.921875 -26.71875 17.6875 -25.175781 17.6875 -22.09375 Z M 17.6875 -18.0625 "/></g></g></g><g fill="#0f0147" fill-opacity="1"><g transform="translate(189.41088, 250.36387)"><g><path d="M 2.015625 -26.71875 L 7.984375 -26.71875 L 7.984375 0 L 2.015625 0 Z M 2.015625 -26.71875 "/></g></g></g><g fill="#0f0147" fill-opacity="1"><g transform="translate(199.406882, 250.36387)"><g><path d="M 11.171875 -5.453125 L 11.171875 -10.296875 C 11.171875 -10.660156 11.085938 -10.914062 10.921875 -11.0625 C 10.753906 -11.21875 10.457031 -11.296875 10.03125 -11.296875 L 6.34375 -11.296875 C 3.039062 -11.296875 1.390625 -12.863281 1.390625 -16 L 1.390625 -22.09375 C 1.390625 -25.175781 3.148438 -26.71875 6.671875 -26.71875 L 11.796875 -26.71875 C 15.328125 -26.71875 17.09375 -25.175781 17.09375 -22.09375 L 17.09375 -18.609375 L 11.09375 -18.609375 L 11.09375 -21.25 C 11.09375 -21.945312 10.710938 -22.296875 9.953125 -22.296875 L 8.53125 -22.296875 C 7.769531 -22.296875 7.390625 -21.945312 7.390625 -21.25 L 7.390625 -16.546875 C 7.390625 -16.179688 7.472656 -15.921875 7.640625 -15.765625 C 7.804688 -15.617188 8.101562 -15.546875 8.53125 -15.546875 L 12.140625 -15.546875 C 13.929688 -15.546875 15.21875 -15.160156 16 -14.390625 C 16.78125 -13.617188 17.171875 -12.476562 17.171875 -10.96875 L 17.171875 -4.65625 C 17.171875 -1.550781 15.410156 0 11.890625 0 L 6.796875 0 C 3.242188 0 1.46875 -1.550781 1.46875 -4.65625 L 1.46875 -8.109375 L 7.46875 -8.109375 L 7.46875 -5.453125 C 7.46875 -4.753906 7.847656 -4.40625 8.609375 -4.40625 L 10.03125 -4.40625 C 10.789062 -4.40625 11.171875 -4.753906 11.171875 -5.453125 Z M 11.171875 -5.453125 "/></g></g></g><g fill="#0f0147" fill-opacity="1"><g transform="translate(217.97088, 250.36387)"><g><path d="M 12.09375 -26.71875 L 18.109375 -26.71875 L 18.109375 -4.65625 C 18.109375 -1.550781 16.328125 0 12.765625 0 L 7.140625 0 C 3.609375 0 1.84375 -1.550781 1.84375 -4.65625 L 1.84375 -26.71875 L 7.859375 -26.71875 L 7.859375 -5.453125 C 7.859375 -4.753906 8.222656 -4.40625 8.953125 -4.40625 L 10.96875 -4.40625 C 11.71875 -4.40625 12.09375 -4.753906 12.09375 -5.453125 Z M 12.09375 -26.71875 "/></g></g></g><g fill="#0f0147" fill-opacity="1"><g transform="translate(237.920872, 250.36387)"><g><path d="M 2.015625 -26.71875 L 7.984375 -26.71875 L 7.984375 0 L 2.015625 0 Z M 2.015625 -26.71875 "/></g></g></g><g fill="#0f0147" fill-opacity="1"><g transform="translate(247.916873, 250.36387)"><g><path d="M 16 -26.71875 L 16 -22.296875 L 11.09375 -22.296875 L 11.09375 0 L 5.078125 0 L 5.078125 -22.296875 L 0.203125 -22.296875 L 0.203125 -26.71875 Z M 16 -26.71875 "/></g></g></g><g fill="#0f0147" fill-opacity="1"><g transform="translate(264.12887, 250.36387)"><g><path d="M 7.890625 -4.40625 L 16.46875 -4.40625 L 16.46875 0 L 1.890625 0 L 1.890625 -26.71875 L 16.125 -26.71875 L 16.125 -22.296875 L 7.890625 -22.296875 L 7.890625 -15.796875 L 14.90625 -15.796875 L 14.90625 -11.375 L 7.890625 -11.375 Z M 7.890625 -4.40625 "/></g></g></g><g fill="#0f0147" fill-opacity="1"><g transform="translate(281.306863, 250.36387)"><g><path d="M 11.171875 -5.453125 L 11.171875 -10.296875 C 11.171875 -10.660156 11.085938 -10.914062 10.921875 -11.0625 C 10.753906 -11.21875 10.457031 -11.296875 10.03125 -11.296875 L 6.34375 -11.296875 C 3.039062 -11.296875 1.390625 -12.863281 1.390625 -16 L 1.390625 -22.09375 C 1.390625 -25.175781 3.148438 -26.71875 6.671875 -26.71875 L 11.796875 -26.71875 C 15.328125 -26.71875 17.09375 -25.175781 17.09375 -22.09375 L 17.09375 -18.609375 L 11.09375 -18.609375 L 11.09375 -21.25 C 11.09375 -21.945312 10.710938 -22.296875 9.953125 -22.296875 L 8.53125 -22.296875 C 7.769531 -22.296875 7.390625 -21.945312 7.390625 -21.25 L 7.390625 -16.546875 C 7.390625 -16.179688 7.472656 -15.921875 7.640625 -15.765625 C 7.804688 -15.617188 8.101562 -15.546875 8.53125 -15.546875 L 12.140625 -15.546875 C 13.929688 -15.546875 15.21875 -15.160156 16 -14.390625 C 16.78125 -13.617188 17.171875 -12.476562 17.171875 -10.96875 L 17.171875 -4.65625 C 17.171875 -1.550781 15.410156 0 11.890625 0 L 6.796875 0 C 3.242188 0 1.46875 -1.550781 1.46875 -4.65625 L 1.46875 -8.109375 L 7.46875 -8.109375 L 7.46875 -5.453125 C 7.46875 -4.753906 7.847656 -4.40625 8.609375 -4.40625 L 10.03125 -4.40625 C 10.789062 -4.40625 11.171875 -4.753906 11.171875 -5.453125 Z M 11.171875 -5.453125 "/></g></g></g><g clip-path="url(#634f8971c9)"><path fill="#000000" d="M 170.113281 159.578125 L 150.363281 192.964844 L 140.585938 192.964844 L 165.21875 151.296875 Z M 170.113281 159.578125 " fill-opacity="1" fill-rule="nonzero"/></g><path fill="#000000" d="M 214.222656 159.570312 L 219.105469 151.304688 L 243.746094 192.964844 L 233.96875 192.964844 Z M 214.222656 159.570312 " fill-opacity="1" fill-rule="nonzero"/><g clip-path="url(#1a90c3b9ce)"><path fill="#5271ff" d="M 192.167969 105.726562 L 216.597656 146.984375 L 208.226562 161.113281 L 227.042969 192.878906 L 197.601562 192.820312 L 202.289062 184.609375 L 212.371094 184.613281 L 192.164062 150.503906 L 187.875 157.753906 L 182.988281 149.503906 L 192.167969 134.003906 L 203.339844 152.871094 L 206.824219 146.988281 L 192.167969 122.238281 L 177.511719 146.988281 L 192.167969 171.734375 L 196.457031 164.488281 L 201.34375 172.746094 L 192.164062 188.246094 L 180.992188 169.367188 L 171.984375 184.402344 L 181.554688 184.417969 L 186.539062 192.839844 L 157.289062 192.878906 L 176.105469 161.113281 L 167.734375 146.984375 Z M 192.167969 105.726562 " fill-opacity="1" fill-rule="nonzero"/></g><g mask="url(#3836e78766)"><g transform="matrix(1, 0, 0, 1, 108, 98)"><g clip-path="url(#c30b4f7b83)"><g clip-path="url(#d58e9da841)"><path fill="#5271ff" d="M 108.453125 58.410156 L 98.871094 48.828125 L 44.015625 103.683594 L 0.757812 60.34375 L 47.410156 13.691406 L 54.835938 21.117188 L 15.609375 60.34375 L 43.910156 88.648438 L 52.695312 79.863281 L 35.792969 62.957031 L 35.90625 62.84375 L 35.800781 62.742188 L 97.96875 0.574219 L 105.394531 8 L 50.539062 62.855469 L 60.121094 72.441406 L 114.976562 17.582031 L 158.234375 60.921875 L 111.578125 107.574219 L 104.15625 100.148438 L 143.386719 60.921875 L 115.082031 32.617188 L 106.296875 41.40625 L 123.199219 58.308594 L 123.085938 58.421875 L 123.191406 58.527344 L 61.023438 120.695312 L 53.597656 113.269531 Z M 108.453125 58.410156 " fill-opacity="1" fill-rule="nonzero"/></g></g></g></g></svg>