<?xml version="1.0" encoding="utf-8" ?>
<svg xmlns="http://www.w3.org/2000/svg" xmlns:xlink="http://www.w3.org/1999/xlink" width="16" height="16" viewBox="0 0 16 16">
	<defs>
		<clipPath id="clipPath3087995773">
			<path d="M0 0L16 0L16 16L0 16L0 0Z" fill-rule="nonzero" transform="matrix(1 0 0 1 0 0)"/>
		</clipPath>
	</defs>
	<g clip-path="url(#clipPath3087995773)">
		<rect width="12" height="7.3333335" rx="1.3333334" ry="1.3333334" stroke-width="1.3333334" stroke-linejoin="round" transform="matrix(1 0 0 1 2 7.33333)" stroke="rgb(113, 113, 122)" fill="transparent"/>
		<path d="M-0.666667 3.33333L-0.666667 6C-0.666667 6.36819 -0.368187 6.66667 0 6.66667C0.368187 6.66667 0.666667 6.36819 0.666667 6L0.666667 3.33333Q0.666666 2.22876 1.44772 1.44772Q2.22876 0.666667 3.33333 0.666667Q4.4379 0.666667 5.21895 1.44772Q6 2.22876 6 3.33333L6 6C6 6.36819 6.29848 6.66667 6.66667 6.66667C7.03485 6.66667 7.33333 6.36819 7.33333 6L7.33333 3.33333Q7.33333 1.67648 6.16176 0.504906Q4.99019 -0.666667 3.33333 -0.666667Q1.67648 -0.666667 0.504906 0.504906Q-0.666667 1.67648 -0.666667 3.33333Z" fill-rule="evenodd" transform="matrix(1 0 0 1 4.66667 1.33333)" fill="rgb(113, 113, 122)"/>
	</g>
</svg>
