<?xml version="1.0" encoding="utf-8" ?>
<svg xmlns="http://www.w3.org/2000/svg" xmlns:xlink="http://www.w3.org/1999/xlink" width="16" height="16" viewBox="0 0 16 16">
	<defs>
		<clipPath id="clipPath9641997764">
			<path d="M0 0L16 0L16 16L0 16L0 0Z" fill-rule="nonzero" transform="matrix(1 0 0 1 0 0)"/>
		</clipPath>
	</defs>
	<g clip-path="url(#clipPath9641997764)">
		<path d="M7 0.666667L1.33333 0.666667Q1.05719 0.666667 0.86193 0.861928Q0.666667 1.05719 0.666667 1.33333L0.666667 12Q0.666667 12.2761 0.861928 12.4714Q1.05719 12.6667 1.33334 12.6667L9.33333 12.6667Q9.60948 12.6667 9.80474 12.4714Q10 12.2761 10 12L10 3.66667L10.6667 3.66667L10.1953 4.13807L6.5286 0.471405L7 0L7 0.666667ZM7 -0.666667Q7.13261 -0.666667 7.25512 -0.61592Q7.37764 -0.565173 7.4714 -0.471405L11.1381 3.19526Q11.2318 3.28903 11.2826 3.41154Q11.3333 3.53406 11.3333 3.66667L11.3333 12Q11.3333 12.8284 10.7475 13.4142Q10.1618 14 9.33333 14L1.33333 14Q0.504906 14 -0.0808805 13.4142Q-0.666667 12.8284 -0.666667 12L-0.666667 1.33333Q-0.666667 0.504906 -0.0808801 -0.08088Q0.504906 -0.666667 1.33333 -0.666667L7 -0.666667L7 -0.666667Z" fill-rule="nonzero" transform="matrix(1 0 0 1 2.66667 1.33333)" fill="rgb(250, 250, 250)"/>
		<path d="M0 -0.666667C-0.368187 -0.666667 -0.666667 -0.368187 -0.666667 0L-0.666667 4Q-0.666667 4.06566 -0.653857 4.13006Q-0.641047 4.19446 -0.61592 4.25512Q-0.590792 4.31578 -0.554313 4.37038Q-0.517834 4.42497 -0.471404 4.4714Q-0.424975 4.51783 -0.37038 4.55431Q-0.315785 4.59079 -0.255122 4.61592Q-0.194459 4.64105 -0.13006 4.65386Q-0.0656609 4.66667 0 4.66667L4 4.66667C4.36819 4.66667 4.66667 4.36819 4.66667 4C4.66667 3.63181 4.36819 3.33333 4 3.33333L0.666667 3.33333L0.666667 0C0.666667 -0.368187 0.368187 -0.666667 0 -0.666667Z" fill-rule="evenodd" transform="matrix(1 0 0 1 9.33333 1.33333)" fill="rgb(250, 250, 250)"/>
		<path d="M-0.666667 0C-0.666667 0.368187 -0.368187 0.666667 0 0.666667L5.33333 0.666667C5.70152 0.666667 6 0.368187 6 0C6 -0.368187 5.70152 -0.666667 5.33333 -0.666667L0 -0.666667C-0.368187 -0.666667 -0.666667 -0.368187 -0.666667 0Z" fill-rule="evenodd" transform="matrix(1 0 0 1 5.33333 8.66667)" fill="rgb(250, 250, 250)"/>
		<path d="M-0.666667 0C-0.666667 0.368187 -0.368187 0.666667 0 0.666667L5.33333 0.666667C5.70152 0.666667 6 0.368187 6 0C6 -0.368187 5.70152 -0.666667 5.33333 -0.666667L0 -0.666667C-0.368187 -0.666667 -0.666667 -0.368187 -0.666667 0Z" fill-rule="evenodd" transform="matrix(1 0 0 1 5.33333 11.3333)" fill="rgb(250, 250, 250)"/>
		<path d="M-0.666667 0C-0.666667 0.368187 -0.368187 0.666667 0 0.666667L1.33333 0.666667C1.70152 0.666667 2 0.368187 2 0C2 -0.368187 1.70152 -0.666667 1.33333 -0.666667L0 -0.666667C-0.368187 -0.666667 -0.666667 -0.368187 -0.666667 0Z" fill-rule="evenodd" transform="matrix(1 0 0 1 5.33333 6)" fill="rgb(250, 250, 250)"/>
	</g>
</svg>
