<?xml version="1.0" encoding="utf-8" ?>
<svg xmlns="http://www.w3.org/2000/svg" xmlns:xlink="http://www.w3.org/1999/xlink" width="16" height="16" viewBox="0 0 16 16">
	<defs>
		<clipPath id="clipPath5113750448">
			<path d="M0 0L16 0L16 16L0 16L0 0Z" fill-rule="nonzero" transform="matrix(1 0 0 1 0 0)"/>
		</clipPath>
	</defs>
	<g clip-path="url(#clipPath5113750448)">
		<rect width="5.3333335" height="2.6666667" rx="0.66666669" ry="0.66666669" stroke-width="1.3333334" stroke-linejoin="round" transform="matrix(1 0 0 1 5.33333 1.33333)" stroke="rgb(250, 250, 250)" fill="transparent"/>
		<path d="M9.33333 -0.666667L8 -0.666667C7.63181 -0.666667 7.33333 -0.368187 7.33333 0C7.33333 0.368187 7.63181 0.666667 8 0.666667L9.33333 0.666667Q9.60948 0.666667 9.80474 0.861928Q10 1.05719 10 1.33333L10 10.6667Q10 10.9428 9.80474 11.1381Q9.60948 11.3333 9.33333 11.3333L1.33333 11.3333Q1.05719 11.3333 0.861929 11.1381Q0.666667 10.9428 0.666667 10.6667L0.666667 1.33333Q0.666667 1.05719 0.861928 0.86193Q1.05719 0.666667 1.33333 0.666667L2.66667 0.666667C3.03485 0.666667 3.33333 0.368187 3.33333 0C3.33333 -0.368187 3.03485 -0.666667 2.66667 -0.666667L1.33333 -0.666667Q0.504906 -0.666667 -0.08088 -0.0808801Q-0.666667 0.504906 -0.666667 1.33333L-0.666667 10.6667Q-0.666667 11.4951 -0.08088 12.0809Q0.504906 12.6667 1.33333 12.6667L9.33334 12.6667Q10.1618 12.6667 10.7475 12.0809Q11.3333 11.4951 11.3333 10.6667L11.3333 1.33333Q11.3333 0.504908 10.7475 -0.0808806Q10.1618 -0.666667 9.33333 -0.666667Z" fill-rule="evenodd" transform="matrix(1 0 0 1 2.66667 2.66667)" fill="rgb(250, 250, 250)"/>
		<path d="M-0.666667 0C-0.666667 0.368187 -0.368187 0.666667 0 0.666667L2.66667 0.666667C3.03485 0.666667 3.33333 0.368187 3.33333 0C3.33333 -0.368187 3.03485 -0.666667 2.66667 -0.666667L0 -0.666667C-0.368187 -0.666667 -0.666667 -0.368187 -0.666667 0Z" fill-rule="evenodd" transform="matrix(1 0 0 1 8 7.33333)" fill="rgb(250, 250, 250)"/>
		<path d="M-0.666667 0C-0.666667 0.368187 -0.368187 0.666667 0 0.666667L2.66667 0.666667C3.03485 0.666667 3.33333 0.368187 3.33333 0C3.33333 -0.368187 3.03485 -0.666667 2.66667 -0.666667L0 -0.666667C-0.368187 -0.666667 -0.666667 -0.368187 -0.666667 0Z" fill-rule="evenodd" transform="matrix(1 0 0 1 8 10.6667)" fill="rgb(250, 250, 250)"/>
		<path d="M0 0.666667C-0.368187 0.666667 -0.666667 0.368187 -0.666667 0C-0.666667 -0.368187 -0.368187 -0.666667 0 -0.666667L0 0.666667ZM0.673334 0C0.673334 -0.368187 0.374853 -0.666667 0.00666682 -0.666667L0.00666682 0.666667C0.374853 0.666667 0.673334 0.368187 0.673334 0Z" fill-rule="evenodd" transform="matrix(1 0 0 1 5.33333 7.33333)" fill="rgb(250, 250, 250)"/>
		<path d="M0 0.666667C-0.368187 0.666667 -0.666667 0.368187 -0.666667 0C-0.666667 -0.368187 -0.368187 -0.666667 0 -0.666667L0 0.666667ZM0.673334 0C0.673334 -0.368187 0.374853 -0.666667 0.00666682 -0.666667L0.00666682 0.666667C0.374853 0.666667 0.673334 0.368187 0.673334 0Z" fill-rule="evenodd" transform="matrix(1 0 0 1 5.33333 10.6667)" fill="rgb(250, 250, 250)"/>
	</g>
</svg>
